<svg width="740" height="207" viewBox="0 0 740 207" fill="none" xmlns="http://www.w3.org/2000/svg">
<path d="M4.27 102V45.3H20.93C24.3367 45.3 27.09 45.93 29.19 47.19C31.3367 48.45 32.9 50.2933 33.88 52.72C34.9067 55.1 35.42 57.9933 35.42 61.4C35.42 65.0867 34.79 68.0733 33.53 70.36C32.27 72.6 30.4967 74.2333 28.21 75.26C25.97 76.2867 23.31 76.8 20.23 76.8H14.63V102H4.27ZM14.63 69.52H18.55C20.4167 69.52 21.8633 69.2633 22.89 68.75C23.9633 68.19 24.6867 67.3267 25.06 66.16C25.48 64.9467 25.69 63.3367 25.69 61.33C25.69 59.2767 25.5267 57.62 25.2 56.36C24.92 55.0533 24.2667 54.0967 23.24 53.49C22.26 52.8833 20.6967 52.58 18.55 52.58H14.63V69.52ZM47.8472 102.63C46.0272 102.63 44.4639 102.163 43.1572 101.23C41.8505 100.25 40.8472 99.0367 40.1472 97.59C39.4472 96.0967 39.0972 94.5567 39.0972 92.97C39.0972 90.45 39.5639 88.3267 40.4972 86.6C41.4305 84.8733 42.6672 83.4267 44.2072 82.26C45.7472 81.0933 47.4972 80.09 49.4572 79.25C51.4172 78.3633 53.4005 77.57 55.4072 76.87V73.37C55.4072 72.2033 55.3139 71.2233 55.1272 70.43C54.9872 69.6367 54.6839 69.03 54.2172 68.61C53.7972 68.19 53.1205 67.98 52.1872 67.98C51.3939 67.98 50.7405 68.1667 50.2272 68.54C49.7605 68.9133 49.4105 69.45 49.1772 70.15C48.9905 70.8033 48.8739 71.5733 48.8272 72.46L48.6872 74.91L39.6572 74.56C39.7972 69.8933 40.9405 66.4633 43.0872 64.27C45.2805 62.03 48.5939 60.91 53.0272 60.91C57.0872 60.91 60.0272 62.03 61.8472 64.27C63.7139 66.51 64.6472 69.5433 64.6472 73.37V92.06C64.6472 93.5533 64.6705 94.9067 64.7172 96.12C64.8105 97.3333 64.9039 98.43 64.9972 99.41C65.1372 100.39 65.2539 101.253 65.3472 102H56.8072C56.6672 101.067 56.4805 100.017 56.2472 98.85C56.0605 97.6367 55.9205 96.75 55.8272 96.19C55.3605 97.8233 54.4739 99.3167 53.1672 100.67C51.8605 101.977 50.0872 102.63 47.8472 102.63ZM51.3472 95.56C51.9539 95.56 52.5139 95.42 53.0272 95.14C53.5872 94.8133 54.0772 94.44 54.4972 94.02C54.9172 93.6 55.2205 93.2267 55.4072 92.9V81.63C54.3805 82.2367 53.4005 82.8433 52.4672 83.45C51.5805 84.0567 50.7872 84.7333 50.0872 85.48C49.4339 86.18 48.9205 86.95 48.5472 87.79C48.2205 88.63 48.0572 89.61 48.0572 90.73C48.0572 92.2233 48.3372 93.4133 48.8972 94.3C49.5039 95.14 50.3205 95.56 51.3472 95.56ZM71.8676 102V61.54H81.3876V67.77C82.7876 65.39 84.1876 63.6867 85.5876 62.66C86.9876 61.5867 88.5276 61.05 90.2076 61.05C90.4876 61.05 90.7209 61.0733 90.9076 61.12C91.1409 61.12 91.3976 61.1433 91.6776 61.19V71.06C91.1176 70.8267 90.4876 70.64 89.7876 70.5C89.1342 70.3133 88.4576 70.22 87.7576 70.22C86.4976 70.22 85.3542 70.5233 84.3276 71.13C83.3009 71.7367 82.3209 72.74 81.3876 74.14V102H71.8676ZM104.039 102.63C102.219 102.63 100.655 102.163 99.3486 101.23C98.0419 100.25 97.0386 99.0367 96.3386 97.59C95.6386 96.0967 95.2886 94.5567 95.2886 92.97C95.2886 90.45 95.7553 88.3267 96.6886 86.6C97.6219 84.8733 98.8586 83.4267 100.399 82.26C101.939 81.0933 103.689 80.09 105.649 79.25C107.609 78.3633 109.592 77.57 111.599 76.87V73.37C111.599 72.2033 111.505 71.2233 111.319 70.43C111.179 69.6367 110.875 69.03 110.409 68.61C109.989 68.19 109.312 67.98 108.379 67.98C107.585 67.98 106.932 68.1667 106.419 68.54C105.952 68.9133 105.602 69.45 105.369 70.15C105.182 70.8033 105.065 71.5733 105.019 72.46L104.879 74.91L95.8486 74.56C95.9886 69.8933 97.1319 66.4633 99.2786 64.27C101.472 62.03 104.785 60.91 109.219 60.91C113.279 60.91 116.219 62.03 118.039 64.27C119.905 66.51 120.839 69.5433 120.839 73.37V92.06C120.839 93.5533 120.862 94.9067 120.909 96.12C121.002 97.3333 121.095 98.43 121.189 99.41C121.329 100.39 121.445 101.253 121.539 102H112.999C112.859 101.067 112.672 100.017 112.439 98.85C112.252 97.6367 112.112 96.75 112.019 96.19C111.552 97.8233 110.665 99.3167 109.359 100.67C108.052 101.977 106.279 102.63 104.039 102.63ZM107.539 95.56C108.145 95.56 108.705 95.42 109.219 95.14C109.779 94.8133 110.269 94.44 110.689 94.02C111.109 93.6 111.412 93.2267 111.599 92.9V81.63C110.572 82.2367 109.592 82.8433 108.659 83.45C107.772 84.0567 106.979 84.7333 106.279 85.48C105.625 86.18 105.112 86.95 104.739 87.79C104.412 88.63 104.249 89.61 104.249 90.73C104.249 92.2233 104.529 93.4133 105.089 94.3C105.695 95.14 106.512 95.56 107.539 95.56ZM151.17 102V52.93H142.14V45.3H170.42V52.93H161.53V102H151.17ZM186.242 102.63C183.302 102.63 180.875 102.093 178.962 101.02C177.048 99.9 175.602 98.29 174.622 96.19C173.688 94.09 173.222 91.5467 173.222 88.56V74.98C173.222 71.9933 173.688 69.45 174.622 67.35C175.602 65.25 177.048 63.6633 178.962 62.59C180.875 61.47 183.302 60.91 186.242 60.91C189.182 60.91 191.608 61.47 193.522 62.59C195.482 63.6633 196.928 65.25 197.862 67.35C198.842 69.45 199.332 71.9933 199.332 74.98V88.56C199.332 91.5467 198.842 94.09 197.862 96.19C196.928 98.29 195.482 99.9 193.522 101.02C191.608 102.093 189.182 102.63 186.242 102.63ZM186.312 96.05C187.385 96.05 188.178 95.7467 188.692 95.14C189.205 94.5333 189.532 93.7167 189.672 92.69C189.812 91.6167 189.882 90.45 189.882 89.19V74.35C189.882 73.09 189.812 71.9467 189.672 70.92C189.532 69.8933 189.205 69.0767 188.692 68.47C188.178 67.8167 187.385 67.49 186.312 67.49C185.238 67.49 184.445 67.8167 183.932 68.47C183.418 69.0767 183.068 69.8933 182.882 70.92C182.742 71.9467 182.672 73.09 182.672 74.35V89.19C182.672 90.45 182.742 91.6167 182.882 92.69C183.068 93.7167 183.418 94.5333 183.932 95.14C184.445 95.7467 185.238 96.05 186.312 96.05ZM214.947 102.63C211.727 102.63 209.277 101.487 207.597 99.2C205.964 96.9133 205.147 93.25 205.147 88.21V75.82C205.147 73.02 205.45 70.5 206.057 68.26C206.71 66.02 207.737 64.2467 209.137 62.94C210.537 61.5867 212.427 60.91 214.807 60.91C216.254 60.91 217.584 61.2133 218.797 61.82C220.057 62.38 221.2 63.1267 222.227 64.06V45.3H231.747V102H222.227V99.13C221.154 100.203 220.01 101.067 218.797 101.72C217.584 102.327 216.3 102.63 214.947 102.63ZM218.447 96.05C218.96 96.05 219.544 95.9333 220.197 95.7C220.85 95.4667 221.527 95.14 222.227 94.72V68.75C221.667 68.3767 221.06 68.0733 220.407 67.84C219.754 67.56 219.077 67.42 218.377 67.42C217.024 67.42 216.067 68.05 215.507 69.31C214.994 70.5233 214.737 72.0167 214.737 73.79V88.91C214.737 90.2633 214.83 91.4767 215.017 92.55C215.204 93.6233 215.554 94.4867 216.067 95.14C216.627 95.7467 217.42 96.05 218.447 96.05ZM251.183 102.63C248.243 102.63 245.816 102.093 243.903 101.02C241.99 99.9 240.543 98.29 239.563 96.19C238.63 94.09 238.163 91.5467 238.163 88.56V74.98C238.163 71.9933 238.63 69.45 239.563 67.35C240.543 65.25 241.99 63.6633 243.903 62.59C245.816 61.47 248.243 60.91 251.183 60.91C254.123 60.91 256.55 61.47 258.463 62.59C260.423 63.6633 261.87 65.25 262.803 67.35C263.783 69.45 264.273 71.9933 264.273 74.98V88.56C264.273 91.5467 263.783 94.09 262.803 96.19C261.87 98.29 260.423 99.9 258.463 101.02C256.55 102.093 254.123 102.63 251.183 102.63ZM251.253 96.05C252.326 96.05 253.12 95.7467 253.633 95.14C254.146 94.5333 254.473 93.7167 254.613 92.69C254.753 91.6167 254.823 90.45 254.823 89.19V74.35C254.823 73.09 254.753 71.9467 254.613 70.92C254.473 69.8933 254.146 69.0767 253.633 68.47C253.12 67.8167 252.326 67.49 251.253 67.49C250.18 67.49 249.386 67.8167 248.873 68.47C248.36 69.0767 248.01 69.8933 247.823 70.92C247.683 71.9467 247.613 73.09 247.613 74.35V89.19C247.613 90.45 247.683 91.6167 247.823 92.69C248.01 93.7167 248.36 94.5333 248.873 95.14C249.386 95.7467 250.18 96.05 251.253 96.05ZM281.778 102.63C278.372 102.63 275.572 101.72 273.378 99.9C271.185 98.08 269.622 95.42 268.688 91.92L275.758 89.19C276.318 91.3833 277.065 93.0633 277.998 94.23C278.932 95.3967 280.145 95.98 281.638 95.98C282.758 95.98 283.598 95.7 284.158 95.14C284.718 94.58 284.998 93.81 284.998 92.83C284.998 91.71 284.648 90.7067 283.948 89.82C283.295 88.8867 282.152 87.7433 280.518 86.39L275.618 82.26C273.845 80.72 272.398 79.1567 271.278 77.57C270.205 75.9367 269.668 73.9067 269.668 71.48C269.668 69.2867 270.158 67.42 271.138 65.88C272.165 64.2933 273.542 63.08 275.268 62.24C277.042 61.3533 279.002 60.91 281.148 60.91C284.415 60.91 287.028 61.89 288.988 63.85C290.995 65.7633 292.278 68.2833 292.838 71.41L286.608 74.07C286.375 72.95 286.025 71.9233 285.558 70.99C285.138 70.01 284.578 69.2167 283.878 68.61C283.178 68.0033 282.362 67.7 281.428 67.7C280.448 67.7 279.655 68.0033 279.048 68.61C278.488 69.2167 278.208 69.9867 278.208 70.92C278.208 71.7133 278.535 72.53 279.188 73.37C279.888 74.21 280.868 75.1667 282.128 76.24L287.098 80.72C288.172 81.6533 289.198 82.6567 290.178 83.73C291.158 84.8033 291.975 86.0167 292.628 87.37C293.282 88.6767 293.608 90.1933 293.608 91.92C293.608 94.2533 293.072 96.2133 291.998 97.8C290.972 99.3867 289.548 100.6 287.728 101.44C285.955 102.233 283.972 102.63 281.778 102.63Z" fill="#101010"/>
<path d="M4.13 193L5.11 136.3H15.82L23.87 175.57L32.27 136.3H42.63L43.68 193H35.98L35.14 153.59L27.09 193H20.86L12.67 153.45L11.9 193H4.13ZM59.2632 193.63C57.4432 193.63 55.8799 193.163 54.5732 192.23C53.2665 191.25 52.2632 190.037 51.5632 188.59C50.8632 187.097 50.5132 185.557 50.5132 183.97C50.5132 181.45 50.9799 179.327 51.9132 177.6C52.8465 175.873 54.0832 174.427 55.6232 173.26C57.1632 172.093 58.9132 171.09 60.8732 170.25C62.8332 169.363 64.8165 168.57 66.8232 167.87V164.37C66.8232 163.203 66.7299 162.223 66.5432 161.43C66.4032 160.637 66.0999 160.03 65.6332 159.61C65.2132 159.19 64.5365 158.98 63.6032 158.98C62.8099 158.98 62.1565 159.167 61.6432 159.54C61.1765 159.913 60.8265 160.45 60.5932 161.15C60.4065 161.803 60.2899 162.573 60.2432 163.46L60.1032 165.91L51.0732 165.56C51.2132 160.893 52.3565 157.463 54.5032 155.27C56.6965 153.03 60.0099 151.91 64.4432 151.91C68.5032 151.91 71.4432 153.03 73.2632 155.27C75.1299 157.51 76.0632 160.543 76.0632 164.37V183.06C76.0632 184.553 76.0865 185.907 76.1332 187.12C76.2265 188.333 76.3199 189.43 76.4132 190.41C76.5532 191.39 76.6699 192.253 76.7632 193H68.2232C68.0832 192.067 67.8965 191.017 67.6632 189.85C67.4765 188.637 67.3365 187.75 67.2432 187.19C66.7765 188.823 65.8899 190.317 64.5832 191.67C63.2765 192.977 61.5032 193.63 59.2632 193.63ZM62.7632 186.56C63.3699 186.56 63.9299 186.42 64.4432 186.14C65.0032 185.813 65.4932 185.44 65.9132 185.02C66.3332 184.6 66.6365 184.227 66.8232 183.9V172.63C65.7965 173.237 64.8165 173.843 63.8832 174.45C62.9965 175.057 62.2032 175.733 61.5032 176.48C60.8499 177.18 60.3365 177.95 59.9632 178.79C59.6365 179.63 59.4732 180.61 59.4732 181.73C59.4732 183.223 59.7532 184.413 60.3132 185.3C60.9199 186.14 61.7365 186.56 62.7632 186.56ZM94.0636 193.63C90.6569 193.63 87.8569 192.72 85.6636 190.9C83.4703 189.08 81.9069 186.42 80.9736 182.92L88.0436 180.19C88.6036 182.383 89.3503 184.063 90.2836 185.23C91.2169 186.397 92.4303 186.98 93.9236 186.98C95.0436 186.98 95.8836 186.7 96.4436 186.14C97.0036 185.58 97.2836 184.81 97.2836 183.83C97.2836 182.71 96.9336 181.707 96.2336 180.82C95.5803 179.887 94.4369 178.743 92.8036 177.39L87.9036 173.26C86.1303 171.72 84.6836 170.157 83.5636 168.57C82.4903 166.937 81.9536 164.907 81.9536 162.48C81.9536 160.287 82.4436 158.42 83.4236 156.88C84.4503 155.293 85.8269 154.08 87.5536 153.24C89.3269 152.353 91.2869 151.91 93.4336 151.91C96.7003 151.91 99.3136 152.89 101.274 154.85C103.28 156.763 104.564 159.283 105.124 162.41L98.8936 165.07C98.6603 163.95 98.3103 162.923 97.8436 161.99C97.4236 161.01 96.8636 160.217 96.1636 159.61C95.4636 159.003 94.6469 158.7 93.7136 158.7C92.7336 158.7 91.9403 159.003 91.3336 159.61C90.7736 160.217 90.4936 160.987 90.4936 161.92C90.4936 162.713 90.8203 163.53 91.4736 164.37C92.1736 165.21 93.1536 166.167 94.4136 167.24L99.3836 171.72C100.457 172.653 101.484 173.657 102.464 174.73C103.444 175.803 104.26 177.017 104.914 178.37C105.567 179.677 105.894 181.193 105.894 182.92C105.894 185.253 105.357 187.213 104.284 188.8C103.257 190.387 101.834 191.6 100.014 192.44C98.2403 193.233 96.2569 193.63 94.0636 193.63ZM128.752 193V136.3H135.962L149.752 168.64V136.3H158.292V193H151.432L137.572 159.12V193H128.752ZM174.107 193.63C172.287 193.63 170.724 193.163 169.417 192.23C168.11 191.25 167.107 190.037 166.407 188.59C165.707 187.097 165.357 185.557 165.357 183.97C165.357 181.45 165.824 179.327 166.757 177.6C167.69 175.873 168.927 174.427 170.467 173.26C172.007 172.093 173.757 171.09 175.717 170.25C177.677 169.363 179.66 168.57 181.667 167.87V164.37C181.667 163.203 181.574 162.223 181.387 161.43C181.247 160.637 180.944 160.03 180.477 159.61C180.057 159.19 179.38 158.98 178.447 158.98C177.654 158.98 177 159.167 176.487 159.54C176.02 159.913 175.67 160.45 175.437 161.15C175.25 161.803 175.134 162.573 175.087 163.46L174.947 165.91L165.917 165.56C166.057 160.893 167.2 157.463 169.347 155.27C171.54 153.03 174.854 151.91 179.287 151.91C183.347 151.91 186.287 153.03 188.107 155.27C189.974 157.51 190.907 160.543 190.907 164.37V183.06C190.907 184.553 190.93 185.907 190.977 187.12C191.07 188.333 191.164 189.43 191.257 190.41C191.397 191.39 191.514 192.253 191.607 193H183.067C182.927 192.067 182.74 191.017 182.507 189.85C182.32 188.637 182.18 187.75 182.087 187.19C181.62 188.823 180.734 190.317 179.427 191.67C178.12 192.977 176.347 193.63 174.107 193.63ZM177.607 186.56C178.214 186.56 178.774 186.42 179.287 186.14C179.847 185.813 180.337 185.44 180.757 185.02C181.177 184.6 181.48 184.227 181.667 183.9V172.63C180.64 173.237 179.66 173.843 178.727 174.45C177.84 175.057 177.047 175.733 176.347 176.48C175.694 177.18 175.18 177.95 174.807 178.79C174.48 179.63 174.317 180.61 174.317 181.73C174.317 183.223 174.597 184.413 175.157 185.3C175.764 186.14 176.58 186.56 177.607 186.56ZM184.747 145.19C183.487 145.19 182.367 144.91 181.387 144.35C180.407 143.743 179.474 143.183 178.587 142.67C177.7 142.11 176.767 141.83 175.787 141.83C174.854 141.83 174.2 142.087 173.827 142.6C173.5 143.067 173.337 143.767 173.337 144.7H168.437C168.437 143.02 168.6 141.527 168.927 140.22C169.3 138.867 169.93 137.817 170.817 137.07C171.704 136.277 172.894 135.88 174.387 135.88C175.554 135.88 176.604 136.16 177.537 136.72C178.47 137.233 179.38 137.77 180.267 138.33C181.2 138.843 182.157 139.1 183.137 139.1C183.93 139.1 184.49 138.867 184.817 138.4C185.19 137.933 185.377 137.233 185.377 136.3H189.997C189.997 137.747 189.88 139.147 189.647 140.5C189.414 141.853 188.9 142.973 188.107 143.86C187.36 144.747 186.24 145.19 184.747 145.19ZM210.167 193.63C207.227 193.63 204.801 193.093 202.887 192.02C200.974 190.9 199.527 189.29 198.547 187.19C197.614 185.09 197.147 182.547 197.147 179.56V165.98C197.147 162.993 197.614 160.45 198.547 158.35C199.527 156.25 200.974 154.663 202.887 153.59C204.801 152.47 207.227 151.91 210.167 151.91C213.107 151.91 215.534 152.47 217.447 153.59C219.407 154.663 220.854 156.25 221.787 158.35C222.767 160.45 223.257 162.993 223.257 165.98V179.56C223.257 182.547 222.767 185.09 221.787 187.19C220.854 189.29 219.407 190.9 217.447 192.02C215.534 193.093 213.107 193.63 210.167 193.63ZM210.237 187.05C211.311 187.05 212.104 186.747 212.617 186.14C213.131 185.533 213.457 184.717 213.597 183.69C213.737 182.617 213.807 181.45 213.807 180.19V165.35C213.807 164.09 213.737 162.947 213.597 161.92C213.457 160.893 213.131 160.077 212.617 159.47C212.104 158.817 211.311 158.49 210.237 158.49C209.164 158.49 208.371 158.817 207.857 159.47C207.344 160.077 206.994 160.893 206.807 161.92C206.667 162.947 206.597 164.09 206.597 165.35V180.19C206.597 181.45 206.667 182.617 206.807 183.69C206.994 184.717 207.344 185.533 207.857 186.14C208.371 186.747 209.164 187.05 210.237 187.05ZM247.424 193V136.3H264.084C267.491 136.3 270.244 136.93 272.344 138.19C274.491 139.45 276.054 141.293 277.034 143.72C278.061 146.1 278.574 148.993 278.574 152.4C278.574 156.087 277.944 159.073 276.684 161.36C275.424 163.6 273.651 165.233 271.364 166.26C269.124 167.287 266.464 167.8 263.384 167.8H257.784V193H247.424ZM257.784 160.52H261.704C263.571 160.52 265.018 160.263 266.044 159.75C267.118 159.19 267.841 158.327 268.214 157.16C268.634 155.947 268.844 154.337 268.844 152.33C268.844 150.277 268.681 148.62 268.354 147.36C268.074 146.053 267.421 145.097 266.394 144.49C265.414 143.883 263.851 143.58 261.704 143.58H257.784V160.52ZM291.001 193.63C289.181 193.63 287.618 193.163 286.311 192.23C285.005 191.25 284.001 190.037 283.301 188.59C282.601 187.097 282.251 185.557 282.251 183.97C282.251 181.45 282.718 179.327 283.651 177.6C284.585 175.873 285.821 174.427 287.361 173.26C288.901 172.093 290.651 171.09 292.611 170.25C294.571 169.363 296.555 168.57 298.561 167.87V164.37C298.561 163.203 298.468 162.223 298.281 161.43C298.141 160.637 297.838 160.03 297.371 159.61C296.951 159.19 296.275 158.98 295.341 158.98C294.548 158.98 293.895 159.167 293.381 159.54C292.915 159.913 292.565 160.45 292.331 161.15C292.145 161.803 292.028 162.573 291.981 163.46L291.841 165.91L282.811 165.56C282.951 160.893 284.095 157.463 286.241 155.27C288.435 153.03 291.748 151.91 296.181 151.91C300.241 151.91 303.181 153.03 305.001 155.27C306.868 157.51 307.801 160.543 307.801 164.37V183.06C307.801 184.553 307.825 185.907 307.871 187.12C307.965 188.333 308.058 189.43 308.151 190.41C308.291 191.39 308.408 192.253 308.501 193H299.961C299.821 192.067 299.635 191.017 299.401 189.85C299.215 188.637 299.075 187.75 298.981 187.19C298.515 188.823 297.628 190.317 296.321 191.67C295.015 192.977 293.241 193.63 291.001 193.63ZM294.501 186.56C295.108 186.56 295.668 186.42 296.181 186.14C296.741 185.813 297.231 185.44 297.651 185.02C298.071 184.6 298.375 184.227 298.561 183.9V172.63C297.535 173.237 296.555 173.843 295.621 174.45C294.735 175.057 293.941 175.733 293.241 176.48C292.588 177.18 292.075 177.95 291.701 178.79C291.375 179.63 291.211 180.61 291.211 181.73C291.211 183.223 291.491 184.413 292.051 185.3C292.658 186.14 293.475 186.56 294.501 186.56ZM315.022 193V152.54H324.542V158.77C325.942 156.39 327.342 154.687 328.742 153.66C330.142 152.587 331.682 152.05 333.362 152.05C333.642 152.05 333.875 152.073 334.062 152.12C334.295 152.12 334.552 152.143 334.832 152.19V162.06C334.272 161.827 333.642 161.64 332.942 161.5C332.289 161.313 331.612 161.22 330.912 161.22C329.652 161.22 328.509 161.523 327.482 162.13C326.455 162.737 325.475 163.74 324.542 165.14V193H315.022ZM347.193 193.63C345.373 193.63 343.81 193.163 342.503 192.23C341.196 191.25 340.193 190.037 339.493 188.59C338.793 187.097 338.443 185.557 338.443 183.97C338.443 181.45 338.91 179.327 339.843 177.6C340.776 175.873 342.013 174.427 343.553 173.26C345.093 172.093 346.843 171.09 348.803 170.25C350.763 169.363 352.746 168.57 354.753 167.87V164.37C354.753 163.203 354.66 162.223 354.473 161.43C354.333 160.637 354.03 160.03 353.563 159.61C353.143 159.19 352.466 158.98 351.533 158.98C350.74 158.98 350.086 159.167 349.573 159.54C349.106 159.913 348.756 160.45 348.523 161.15C348.336 161.803 348.22 162.573 348.173 163.46L348.033 165.91L339.003 165.56C339.143 160.893 340.286 157.463 342.433 155.27C344.626 153.03 347.94 151.91 352.373 151.91C356.433 151.91 359.373 153.03 361.193 155.27C363.06 157.51 363.993 160.543 363.993 164.37V183.06C363.993 184.553 364.016 185.907 364.063 187.12C364.156 188.333 364.25 189.43 364.343 190.41C364.483 191.39 364.6 192.253 364.693 193H356.153C356.013 192.067 355.826 191.017 355.593 189.85C355.406 188.637 355.266 187.75 355.173 187.19C354.706 188.823 353.82 190.317 352.513 191.67C351.206 192.977 349.433 193.63 347.193 193.63ZM350.693 186.56C351.3 186.56 351.86 186.42 352.373 186.14C352.933 185.813 353.423 185.44 353.843 185.02C354.263 184.6 354.566 184.227 354.753 183.9V172.63C353.726 173.237 352.746 173.843 351.813 174.45C350.926 175.057 350.133 175.733 349.433 176.48C348.78 177.18 348.266 177.95 347.893 178.79C347.566 179.63 347.403 180.61 347.403 181.73C347.403 183.223 347.683 184.413 348.243 185.3C348.85 186.14 349.666 186.56 350.693 186.56ZM665.259 193.77C661.059 193.77 657.793 193 655.459 191.46C653.126 189.92 651.516 187.727 650.629 184.88C649.743 182.033 649.299 178.627 649.299 174.66V136.3H659.379V175.85C659.379 177.623 659.496 179.303 659.729 180.89C659.963 182.43 660.499 183.69 661.339 184.67C662.226 185.603 663.533 186.07 665.259 186.07C667.079 186.07 668.386 185.603 669.179 184.67C670.019 183.69 670.556 182.43 670.789 180.89C671.069 179.303 671.209 177.623 671.209 175.85V136.3H681.219V174.66C681.219 178.627 680.776 182.033 679.889 184.88C679.003 187.727 677.393 189.92 675.059 191.46C672.773 193 669.506 193.77 665.259 193.77ZM688.738 193V152.54H697.908V156.04C699.308 154.547 700.824 153.473 702.458 152.82C704.091 152.12 705.748 151.77 707.428 151.77C709.014 151.77 710.391 152.167 711.558 152.96C712.771 153.753 713.658 155.013 714.218 156.74C715.758 154.967 717.391 153.707 719.118 152.96C720.844 152.167 722.618 151.77 724.438 151.77C725.884 151.77 727.168 152.143 728.288 152.89C729.408 153.59 730.294 154.663 730.948 156.11C731.601 157.51 731.928 159.283 731.928 161.43V193H722.828V162.27C722.828 160.73 722.571 159.68 722.058 159.12C721.544 158.513 720.821 158.21 719.888 158.21C719.141 158.21 718.301 158.42 717.368 158.84C716.481 159.26 715.664 159.843 714.918 160.59C714.918 160.73 714.918 160.87 714.918 161.01C714.918 161.103 714.918 161.243 714.918 161.43V193H705.888V162.27C705.888 160.73 705.608 159.68 705.048 159.12C704.534 158.513 703.811 158.21 702.878 158.21C702.131 158.21 701.314 158.42 700.428 158.84C699.541 159.26 698.701 159.843 697.908 160.59V193H688.738Z" fill="#101010"/>
<path d="M416.305 204.27C415.138 203.71 413.878 202.87 412.525 201.75C411.218 200.63 409.911 199.347 408.605 197.9C407.345 196.5 406.248 195.1 405.315 193.7C405.128 193.747 404.918 193.77 404.685 193.77C404.498 193.77 404.288 193.77 404.055 193.77C400.041 193.77 396.845 193.023 394.465 191.53C392.085 190.037 390.381 187.89 389.355 185.09C388.328 182.29 387.815 178.977 387.815 175.15V153.94C387.815 150.113 388.328 146.847 389.355 144.14C390.381 141.387 392.085 139.287 394.465 137.84C396.845 136.393 400.041 135.67 404.055 135.67C408.161 135.67 411.405 136.393 413.785 137.84C416.165 139.287 417.868 141.387 418.895 144.14C419.921 146.847 420.435 150.113 420.435 153.94V175.22C420.435 177.927 420.178 180.377 419.665 182.57C419.151 184.763 418.311 186.677 417.145 188.31C415.978 189.897 414.438 191.133 412.525 192.02C413.131 192.673 413.761 193.35 414.415 194.05C415.068 194.75 415.721 195.403 416.375 196.01C417.028 196.617 417.658 197.107 418.265 197.48L416.305 204.27ZM404.055 186.14C405.781 186.14 407.065 185.767 407.905 185.02C408.745 184.273 409.305 183.247 409.585 181.94C409.865 180.633 410.005 179.21 410.005 177.67V151.56C410.005 149.973 409.865 148.55 409.585 147.29C409.305 146.03 408.745 145.05 407.905 144.35C407.065 143.603 405.781 143.23 404.055 143.23C402.375 143.23 401.115 143.603 400.275 144.35C399.435 145.05 398.875 146.03 398.595 147.29C398.361 148.55 398.245 149.973 398.245 151.56V177.67C398.245 179.21 398.361 180.633 398.595 181.94C398.875 183.247 399.435 184.273 400.275 185.02C401.115 185.767 402.375 186.14 404.055 186.14ZM434.046 193.63C432.46 193.63 431.153 193.233 430.126 192.44C429.1 191.6 428.353 190.503 427.886 189.15C427.42 187.75 427.186 186.28 427.186 184.74V152.54H436.706V182.99C436.706 184.203 436.893 185.16 437.266 185.86C437.686 186.513 438.433 186.84 439.506 186.84C440.206 186.84 440.906 186.653 441.606 186.28C442.353 185.907 443.076 185.463 443.776 184.95V152.54H453.296V193H443.776V189.15C442.423 190.457 440.93 191.53 439.296 192.37C437.663 193.21 435.913 193.63 434.046 193.63ZM468.462 193.63C466.642 193.63 465.079 193.163 463.772 192.23C462.466 191.25 461.462 190.037 460.762 188.59C460.062 187.097 459.712 185.557 459.712 183.97C459.712 181.45 460.179 179.327 461.112 177.6C462.046 175.873 463.282 174.427 464.822 173.26C466.362 172.093 468.112 171.09 470.072 170.25C472.032 169.363 474.016 168.57 476.022 167.87V164.37C476.022 163.203 475.929 162.223 475.742 161.43C475.602 160.637 475.299 160.03 474.832 159.61C474.412 159.19 473.736 158.98 472.802 158.98C472.009 158.98 471.356 159.167 470.842 159.54C470.376 159.913 470.026 160.45 469.792 161.15C469.606 161.803 469.489 162.573 469.442 163.46L469.302 165.91L460.272 165.56C460.412 160.893 461.556 157.463 463.702 155.27C465.896 153.03 469.209 151.91 473.642 151.91C477.702 151.91 480.642 153.03 482.462 155.27C484.329 157.51 485.262 160.543 485.262 164.37V183.06C485.262 184.553 485.286 185.907 485.332 187.12C485.426 188.333 485.519 189.43 485.612 190.41C485.752 191.39 485.869 192.253 485.962 193H477.422C477.282 192.067 477.096 191.017 476.862 189.85C476.676 188.637 476.536 187.75 476.442 187.19C475.976 188.823 475.089 190.317 473.782 191.67C472.476 192.977 470.702 193.63 468.462 193.63ZM471.962 186.56C472.569 186.56 473.129 186.42 473.642 186.14C474.202 185.813 474.692 185.44 475.112 185.02C475.532 184.6 475.836 184.227 476.022 183.9V172.63C474.996 173.237 474.016 173.843 473.082 174.45C472.196 175.057 471.402 175.733 470.702 176.48C470.049 177.18 469.536 177.95 469.162 178.79C468.836 179.63 468.672 180.61 468.672 181.73C468.672 183.223 468.952 184.413 469.512 185.3C470.119 186.14 470.936 186.56 471.962 186.56ZM492.903 193V136.3H502.353V193H492.903ZM526.36 206.3V189.99C525.286 191.11 524.143 191.997 522.93 192.65C521.716 193.303 520.41 193.63 519.01 193.63C515.79 193.63 513.363 192.487 511.73 190.2C510.096 187.913 509.28 184.25 509.28 179.21V166.82C509.28 164.02 509.583 161.5 510.19 159.26C510.796 157.02 511.8 155.247 513.2 153.94C514.646 152.587 516.56 151.91 518.94 151.91C520.386 151.91 521.716 152.213 522.93 152.82C524.19 153.427 525.333 154.22 526.36 155.2V152.54H535.88V206.3H526.36ZM522.58 187.05C523.093 187.05 523.676 186.933 524.33 186.7C525.03 186.467 525.706 186.14 526.36 185.72V159.82C525.8 159.4 525.193 159.073 524.54 158.84C523.886 158.56 523.21 158.42 522.51 158.42C521.11 158.42 520.13 159.05 519.57 160.31C519.056 161.523 518.8 163.017 518.8 164.79V179.91C518.8 181.263 518.893 182.477 519.08 183.55C519.313 184.623 519.686 185.487 520.2 186.14C520.76 186.747 521.553 187.05 522.58 187.05ZM549.574 193.63C547.987 193.63 546.68 193.233 545.654 192.44C544.627 191.6 543.88 190.503 543.414 189.15C542.947 187.75 542.714 186.28 542.714 184.74V152.54H552.234V182.99C552.234 184.203 552.42 185.16 552.794 185.86C553.214 186.513 553.96 186.84 555.034 186.84C555.734 186.84 556.434 186.653 557.134 186.28C557.88 185.907 558.604 185.463 559.304 184.95V152.54H568.824V193H559.304V189.15C557.95 190.457 556.457 191.53 554.824 192.37C553.19 193.21 551.44 193.63 549.574 193.63ZM588.4 193.63C585.366 193.63 582.893 193.07 580.98 191.95C579.066 190.783 577.643 189.103 576.71 186.91C575.823 184.67 575.38 181.987 575.38 178.86V166.68C575.38 163.46 575.823 160.753 576.71 158.56C577.643 156.367 579.066 154.71 580.98 153.59C582.94 152.47 585.413 151.91 588.4 151.91C591.62 151.91 594.116 152.517 595.89 153.73C597.71 154.943 598.993 156.717 599.74 159.05C600.533 161.337 600.93 164.137 600.93 167.45V173.19H584.83V181.17C584.83 182.477 584.946 183.55 585.18 184.39C585.46 185.23 585.88 185.837 586.44 186.21C587 186.583 587.676 186.77 588.47 186.77C589.31 186.77 589.986 186.583 590.5 186.21C591.013 185.79 591.386 185.207 591.62 184.46C591.853 183.667 591.97 182.687 591.97 181.52V178.16H600.86V180.89C600.86 184.997 599.833 188.147 597.78 190.34C595.726 192.533 592.6 193.63 588.4 193.63ZM584.83 168.5H591.97V164.65C591.97 163.25 591.853 162.13 591.62 161.29C591.386 160.403 591.013 159.773 590.5 159.4C589.986 158.98 589.263 158.77 588.33 158.77C587.49 158.77 586.813 158.98 586.3 159.4C585.786 159.82 585.413 160.52 585.18 161.5C584.946 162.48 584.83 163.88 584.83 165.7V168.5ZM607.6 193V152.54H617.12V158.77C618.52 156.39 619.92 154.687 621.32 153.66C622.72 152.587 624.26 152.05 625.94 152.05C626.22 152.05 626.453 152.073 626.64 152.12C626.873 152.12 627.13 152.143 627.41 152.19V162.06C626.85 161.827 626.22 161.64 625.52 161.5C624.867 161.313 624.19 161.22 623.49 161.22C622.23 161.22 621.087 161.523 620.06 162.13C619.033 162.737 618.053 163.74 617.12 165.14V193H607.6Z" fill="#04471C"/>
<path d="M254.046 54.8997C244.704 35.7189 241.847 -1.65635 305.149 2.28943C384.277 7.22164 254.046 35.1708 305.149 68.0523C346.032 94.3574 391.346 115.192 387.5 113" stroke="#04471C" stroke-width="3"/>
<path d="M377 120.778L395.703 126.596C396.347 126.797 397 126.316 397 125.642V107" stroke="#04471C" stroke-width="3"/>
</svg>
