<svg width="18" height="14" viewBox="0 0 18 14" fill="none" xmlns="http://www.w3.org/2000/svg">
<path d="M10.8267 0.357401C10.7144 0.295856 10.5923 0.268353 10.4723 0.26884C10.2043 0.26993 9.94792 0.413974 9.81294 0.665525C9.61843 1.03132 9.75528 1.48577 10.1211 1.68028C12.0064 2.68762 14.8443 4.66771 15.6054 6.27222L1.54546 6.32938C1.13146 6.33106 0.796831 6.66842 0.798514 7.08242C0.800196 7.49642 1.13756 7.83105 1.55156 7.82937L15.6098 7.77222C14.8594 9.38448 12.0404 11.3864 10.1647 12.4091C9.80049 12.6076 9.66733 13.0622 9.86482 13.4264C10.0633 13.7896 10.5208 13.9227 10.881 13.7262C11.5406 13.3686 17.3115 10.1361 17.2988 7.01315C17.2861 3.89407 11.4891 0.70971 10.8267 0.357401Z" fill="#F5F5F5"/>
</svg>
